<?xml version="1.0" standalone="no"?><svg xmlns:xlink="http://www.w3.org/1999/xlink" xmlns="http://www.w3.org/2000/svg" viewBox="0 0 900 138.45691672401927" preserveAspectRatio="xMaxYMax slice"><g transform="scale(0.6194081211286993)"><rect x="0" y="0" width="1453" height="223.53846153846155" fill="#0C1C29"/><rect x="0" y="0" width="111.77" height="111.77" fill="#0e2c3c"/><g transform="translate(0,0) scale(5.5885) rotate(0)"><rect width="20" height="10" fill="#348e8e"/></g><rect x="111.77" y="0" width="111.77" height="111.77" fill="#102733"/><g transform="translate(111.77,0) scale(5.5885) rotate(0)"><rect width="20" height="10" fill="#296f73"/></g><rect x="223.54" y="0" width="111.77" height="111.77" fill="#296d71"/><g transform="translate(223.54,0) scale(5.5885) rotate(0)"><rect width="20" height="10" fill="#0e2838"/></g><rect x="335.31" y="0" width="111.77" height="111.77" fill="#0c1c2a"/><rect x="335.31" y="0" width="111.77" height="111.77" fill="#0d2433"/><rect x="447.08" y="0" width="111.77" height="111.77" fill="#0c1d2a"/><rect x="447.08" y="0" width="111.77" height="111.77" fill="#0c202e"/><rect x="558.85" y="0" width="111.77" height="111.77" fill="#122e39"/><g transform="translate(558.85,0) scale(5.5885) rotate(0)"><rect width="20" height="10" fill="#318687"/></g><rect x="670.62" y="0" width="111.77" height="111.77" fill="#0f2531"/><g transform="translate(670.62,0) scale(5.5885) rotate(0)"><rect width="20" height="10" fill="#0c1e2c"/></g><rect x="782.38" y="0" width="111.77" height="111.77" fill="#348c8d"/><g transform="translate(782.38,0) scale(5.5885) rotate(0)"><rect width="20" height="10" fill="#26676b"/></g><rect x="894.15" y="0" width="111.77" height="111.77" fill="#102833"/><rect x="894.15" y="0" width="111.77" height="111.77" fill="#1d4c53"/><rect x="1005.92" y="0" width="111.77" height="111.77" fill="#2b7578"/><g transform="translate(1005.92,0) scale(5.5885) rotate(0)"><rect width="20" height="10" fill="#0e3041"/></g><rect x="1117.69" y="0" width="111.77" height="111.77" fill="#0c1d2b"/><rect x="1117.69" y="0" width="111.77" height="111.77" fill="#173a44"/><rect x="1229.46" y="0" width="111.77" height="111.77" fill="#1a454d"/><g transform="translate(1229.46,0) scale(5.5885) rotate(0)"><rect width="20" height="10" fill="#0f3041"/></g><rect x="1341.23" y="0" width="111.77" height="111.77" fill="#163842"/><rect x="1341.23" y="0" width="111.77" height="111.77" fill="#0c202e"/><rect x="0" y="111.77" width="111.77" height="111.77" fill="#122c37"/><g transform="translate(0,111.77) scale(5.5885) rotate(0)"><rect width="20" height="10" fill="#0e2938"/></g><rect x="111.77" y="111.77" width="111.77" height="111.77" fill="#0d212f"/><rect x="111.77" y="111.77" width="111.77" height="111.77" fill="#0e2d3e"/><rect x="223.54" y="111.77" width="111.77" height="111.77" fill="#0d2130"/><rect x="223.54" y="111.77" width="111.77" height="111.77" fill="#1a424b"/><rect x="335.31" y="111.77" width="111.77" height="111.77" fill="#1e4e55"/><rect x="335.31" y="111.77" width="111.77" height="111.77" fill="#0d2331"/><rect x="447.08" y="111.77" width="111.77" height="111.77" fill="#0e2838"/><rect x="447.08" y="111.77" width="111.77" height="111.77" fill="#0d2736"/><rect x="558.85" y="111.77" width="111.77" height="111.77" fill="#0c1d2a"/><rect x="558.85" y="111.77" width="111.77" height="111.77" fill="#2f7f80"/><rect x="670.62" y="111.77" width="111.77" height="111.77" fill="#0c1c29"/><g transform="translate(670.62,111.77) scale(5.5885) rotate(0)"><rect width="20" height="10" fill="#0d212f"/></g><rect x="782.38" y="111.77" width="111.77" height="111.77" fill="#0d2837"/><g transform="translate(782.38,111.77) scale(5.5885) rotate(0)"><rect width="20" height="10" fill="#338a8b"/></g><rect x="894.15" y="111.77" width="111.77" height="111.77" fill="#0f3143"/><g transform="translate(894.15,111.77) scale(5.5885) rotate(0)"><rect width="20" height="10" fill="#0c1e2b"/></g><rect x="1005.92" y="111.77" width="111.77" height="111.77" fill="#0e2d3e"/><rect x="1005.92" y="111.77" width="111.77" height="111.77" fill="#2e7b7e"/><rect x="1117.69" y="111.77" width="111.77" height="111.77" fill="#0e2d3d"/><g transform="translate(1117.69,111.77) scale(5.5885) rotate(0)"><rect width="20" height="10" fill="#0d2533"/></g><rect x="1229.46" y="111.77" width="111.77" height="111.77" fill="#1d4c54"/><rect x="1229.46" y="111.77" width="111.77" height="111.77" fill="#2a7174"/><rect x="1341.23" y="111.77" width="111.77" height="111.77" fill="#0e2a3a"/><g transform="translate(1341.23,111.77) scale(5.5885) rotate(0)"><rect width="20" height="10" fill="#0d212f"/></g></g></svg>