<?xml version="1.0" standalone="no"?><svg xmlns:xlink="http://www.w3.org/1999/xlink" xmlns="http://www.w3.org/2000/svg" viewBox="0 0 1000 1750.0195367539623" preserveAspectRatio="xMaxYMax slice"><g transform="scale(2.368091389382899)"><rect x="0" y="0" width="422.2857142857143" height="739" fill="#0C1C29"/><rect x="0" y="0" width="52.79" height="52.79" fill="#0f3142"/><rect x="0" y="0" width="52.79" height="52.79" fill="#0d2433"/><rect x="52.79" y="0" width="52.79" height="52.79" fill="#0f3243"/><path d="M 52.79 52.79 A 52.79 52.79 0 0 0 105.58 0 L 52.79 0" fill="#0c1c29"/><rect x="105.57" y="0" width="52.79" height="52.79" fill="#0c1c29"/><polygon points="105.57,0 158.35999999999999,52.79 105.57,52.79" fill="#0d2231"/><rect x="158.36" y="0" width="52.79" height="52.79" fill="#286c70"/><polygon points="158.36,0 211.15,0 211.15,52.79" fill="#0d2533"/><rect x="211.14" y="0" width="52.79" height="52.79" fill="#1e4e55"/><g transform="translate(211.14,0) scale(2.6395) rotate(0)"><path d="M10 0L20 10L10 20L0 10L10 0Z" fill="#0f3345"/></g><rect x="263.93" y="0" width="52.79" height="52.79" fill="#0d2534"/><rect x="263.93" y="0" width="52.79" height="52.79" fill="#0c1d2a"/><rect x="316.71" y="0" width="52.79" height="52.79" fill="#0c1c29"/><rect x="316.71" y="0" width="52.79" height="52.79" fill="#0c1c29"/><rect x="369.5" y="0" width="52.79" height="52.79" fill="#1a424b"/><g transform="translate(369.5,0) scale(2.6395) rotate(0)"><path d="M10 5L5 0L0 5L5 10L0 15L5 20L10 15L15 20L20 15L15 10L20 5L15 0L10 5Z" fill="#112b36"/></g><rect x="0" y="52.79" width="52.79" height="52.79" fill="#0d2432"/><g transform="translate(0,52.79) scale(2.6395) rotate(0)"><rect width="20" height="10" fill="#21575d"/></g><rect x="52.79" y="52.79" width="52.79" height="52.79" fill="#183f48"/><g transform="translate(52.79,52.79) scale(2.6395) rotate(0)"><rect width="20" height="10" fill="#0c1c29"/></g><rect x="105.57" y="52.79" width="52.79" height="52.79" fill="#0c1c29"/><g transform="translate(105.57,52.79) scale(2.6395) rotate(0)"><path d="M10 5L5 0L0 5L5 10L0 15L5 20L10 15L15 20L20 15L15 10L20 5L15 0L10 5Z" fill="#20545a"/></g><rect x="158.36" y="52.79" width="52.79" height="52.79" fill="#13303b"/><path d="M 158.36 52.79 A 52.79 52.79 0 0 1  211.15 105.58 L 158.36 52.79 A 52.79 52.79 0 0 0 211.15 105.58" fill="#0e232f"/><rect x="211.14" y="52.79" width="52.79" height="52.79" fill="#0d2432"/><path d="M 211.14 52.79 A 52.79 52.79 0 0 0 263.93 105.58 L 263.93 52.79" fill="#0e2a3a"/><rect x="263.93" y="52.79" width="52.79" height="52.79" fill="#2c7578"/><g transform="translate(263.93,52.79) scale(2.6395) rotate(0)"><path d="M10 0H20V10L10 20H0V10L10 0Z" fill="#0c1c29"/></g><rect x="316.71" y="52.79" width="52.79" height="52.79" fill="#0f3446"/><g transform="translate(316.71,52.79) scale(2.6395) rotate(0)"><rect width="20" height="10" fill="#0c1d2a"/></g><rect x="369.5" y="52.79" width="52.79" height="52.79" fill="#0e2a3a"/><g transform="translate(369.5,52.79) scale(2.6395) rotate(0)"><path d="M10 0L20 10L10 20L0 10L10 0Z" fill="#0c1c29"/></g><rect x="0" y="105.57" width="52.79" height="52.79" fill="#21575d"/><polygon points="0,105.57 52.79,158.35999999999999 0,158.35999999999999" fill="#0c1c29"/><rect x="52.79" y="105.57" width="52.79" height="52.79" fill="#0c1c29"/><g transform="translate(52.79,105.57) scale(2.6395) rotate(0)"><path d="M10 5L5 0L0 5L5 10L0 15L5 20L10 15L15 20L20 15L15 10L20 5L15 0L10 5Z" fill="#0e2c3c"/></g><rect x="105.57" y="105.57" width="52.79" height="52.79" fill="#0c1c29"/><g transform="translate(105.57,105.57) scale(2.6395) rotate(0)"><path d="M10 0L20 10L10 20L0 10L10 0Z" fill="#0c1c29"/></g><rect x="158.36" y="105.57" width="52.79" height="52.79" fill="#0c1c29"/><g transform="translate(158.36,105.57) scale(2.6395) rotate(0)"><path d="M10 0H20V10L10 20H0V10L10 0Z" fill="#0c1c29"/></g><rect x="211.14" y="105.57" width="52.79" height="52.79" fill="#0c1c29"/><g transform="translate(211.14,105.57) scale(2.6395) rotate(0)"><rect width="20" height="10" fill="#0e3041"/></g><rect x="263.93" y="105.57" width="52.79" height="52.79" fill="#0c1c29"/><g transform="translate(263.93,105.57) scale(2.6395) rotate(0)"><rect width="20" height="10" fill="#0c1c29"/></g><rect x="316.71" y="105.57" width="52.79" height="52.79" fill="#0c1c29"/><path d="M 316.71 158.35999999999999 A 52.79 52.79 0 0 0 369.5 105.57 L 316.71 105.57" fill="#0e2d3e"/><rect x="369.5" y="105.57" width="52.79" height="52.79" fill="#225a60"/><polygon points="369.5,105.57 422.29,105.57 369.5,158.35999999999999" fill="#246065"/><rect x="0" y="158.36" width="52.79" height="52.79" fill="#0c1f2d"/><rect x="0" y="158.36" width="52.79" height="52.79" fill="#2d797c"/><rect x="52.79" y="158.36" width="52.79" height="52.79" fill="#26666b"/><polygon points="105.58,158.36 105.58,211.15 52.79,211.15" fill="#0c1c29"/><rect x="105.57" y="158.36" width="52.79" height="52.79" fill="#0c1c29"/><rect x="105.57" y="158.36" width="52.79" height="52.79" fill="#0c1c29"/><rect x="158.36" y="158.36" width="52.79" height="52.79" fill="#0e2c3c"/><polygon points="158.36,158.36 211.15,158.36 158.36,211.15" fill="#0c1c29"/><rect x="211.14" y="158.36" width="52.79" height="52.79" fill="#0e2a3a"/><polygon points="211.14,158.36 263.93,158.36 211.14,211.15" fill="#0c1d2a"/><rect x="263.93" y="158.36" width="52.79" height="52.79" fill="#296e72"/><g transform="translate(263.93,158.36) scale(2.6395) rotate(0)"><path d="M10 0H20V10L10 20H0V10L10 0Z" fill="#0c1c29"/></g><rect x="316.71" y="158.36" width="52.79" height="52.79" fill="#0e2a3a"/><rect x="316.71" y="158.36" width="52.79" height="52.79" fill="#0c1c29"/><rect x="369.5" y="158.36" width="52.79" height="52.79" fill="#14333d"/><rect x="369.5" y="158.36" width="52.79" height="52.79" fill="#318687"/><rect x="0" y="211.14" width="52.79" height="52.79" fill="#0c1c29"/><polygon points="0,211.14 52.79,211.14 0,263.93" fill="#0f3244"/><rect x="52.79" y="211.14" width="52.79" height="52.79" fill="#0d212f"/><polygon points="105.58,211.14 105.58,263.93 52.79,263.93" fill="#0e2c3c"/><rect x="105.57" y="211.14" width="52.79" height="52.79" fill="#0e2939"/><g transform="translate(105.57,211.14) scale(2.6395) rotate(0)"><path d="M10 0H20V10L10 20H0V10L10 0Z" fill="#296d71"/></g><rect x="158.36" y="211.14" width="52.79" height="52.79" fill="#318486"/><path d="M 158.36 263.93 A 52.79 52.79 0 0 0 211.15 211.14 L 158.36 211.14" fill="#0c1c29"/><rect x="211.14" y="211.14" width="52.79" height="52.79" fill="#308183"/><path d="M 211.14 263.93 A 52.79 52.79 0 0 1  263.93 211.14 L 211.14 263.93 A 52.79 52.79 0 0 0 263.93 211.14" fill="#0f3143"/><rect x="263.93" y="211.14" width="52.79" height="52.79" fill="#102834"/><path d="M 263.93 263.93 A 52.79 52.79 0 0 1  316.72 211.14 L 316.72 263.93" fill="#0d202e"/><rect x="316.71" y="211.14" width="52.79" height="52.79" fill="#296e72"/><g transform="translate(316.71,211.14) scale(2.6395) rotate(0)"><path d="M10 0L20 10L10 20L0 10L10 0Z" fill="#0c1c29"/></g><rect x="369.5" y="211.14" width="52.79" height="52.79" fill="#0d2230"/><path d="M 369.5 263.93 A 52.79 52.79 0 0 0 422.29 211.14 L 369.5 211.14" fill="#2c7679"/><rect x="0" y="263.93" width="52.79" height="52.79" fill="#1a424b"/><g transform="translate(0,263.93) scale(2.6395) rotate(0)"><path d="M10 0L20 10L10 20L0 10L10 0Z" fill="#0d2230"/></g><rect x="52.79" y="263.93" width="52.79" height="52.79" fill="#235e63"/><g transform="translate(52.79,263.93) scale(2.6395) rotate(0)"><rect width="20" height="10" fill="#0d2231"/></g><rect x="105.57" y="263.93" width="52.79" height="52.79" fill="#0d202c"/><g transform="translate(105.57,263.93) scale(2.6395) rotate(0)"><rect width="20" height="10" fill="#245f65"/></g><rect x="158.36" y="263.93" width="52.79" height="52.79" fill="#163943"/><g transform="translate(158.36,263.93) scale(2.6395) rotate(0)"><path d="M10 0H20V10L10 20H0V10L10 0Z" fill="#0c1c29"/></g><rect x="211.14" y="263.93" width="52.79" height="52.79" fill="#0c1c29"/><g transform="translate(211.14,263.93) scale(2.6395) rotate(0)"><rect width="20" height="10" fill="#0e2f40"/></g><rect x="263.93" y="263.93" width="52.79" height="52.79" fill="#338b8c"/><g transform="translate(263.93,263.93) scale(2.6395) rotate(0)"><rect width="20" height="10" fill="#0c1c29"/></g><rect x="316.71" y="263.93" width="52.79" height="52.79" fill="#235d62"/><polygon points="369.5,263.93 369.5,316.72 316.71,316.72" fill="#0d2231"/><rect x="369.5" y="263.93" width="52.79" height="52.79" fill="#0c1c29"/><g transform="translate(369.5,263.93) scale(2.6395) rotate(0)"><path d="M10 0H20V10L10 20H0V10L10 0Z" fill="#0d2230"/></g><rect x="0" y="316.71" width="52.79" height="52.79" fill="#0f3143"/><polygon points="0,316.71 52.79,369.5 0,369.5" fill="#2e7d7f"/><rect x="52.79" y="316.71" width="52.79" height="52.79" fill="#0c1c29"/><path d="M 52.79 316.71 A 52.79 52.79 0 0 0 105.58 369.5 L 105.58 316.71" fill="#27696e"/><rect x="105.57" y="316.71" width="52.79" height="52.79" fill="#194049"/><g transform="translate(105.57,316.71) scale(2.6395) rotate(0)"><rect width="20" height="10" fill="#0c1c29"/></g><rect x="158.36" y="316.71" width="52.79" height="52.79" fill="#153540"/><rect x="158.36" y="316.71" width="52.79" height="52.79" fill="#0c1c29"/><rect x="211.14" y="316.71" width="52.79" height="52.79" fill="#0c1c29"/><g transform="translate(211.14,316.71) scale(2.6395) rotate(0)"><path d="M10 0H20V10L10 20H0V10L10 0Z" fill="#0d202c"/></g><rect x="263.93" y="316.71" width="52.79" height="52.79" fill="#235c62"/><path d="M 263.93 369.5 A 52.79 52.79 0 0 1  316.72 316.71 L 263.93 369.5 A 52.79 52.79 0 0 0 316.72 316.71" fill="#13303a"/><rect x="316.71" y="316.71" width="52.79" height="52.79" fill="#0c1c29"/><g transform="translate(316.71,316.71) scale(2.6395) rotate(0)"><path d="M10 0H20V10L10 20H0V10L10 0Z" fill="#0c1c29"/></g><rect x="369.5" y="316.71" width="52.79" height="52.79" fill="#0c1c29"/><g transform="translate(369.5,316.71) scale(2.6395) rotate(0)"><path d="M10 5L5 0L0 5L5 10L0 15L5 20L10 15L15 20L20 15L15 10L20 5L15 0L10 5Z" fill="#1d4b53"/></g><rect x="0" y="369.5" width="52.79" height="52.79" fill="#153640"/><g transform="translate(0,369.5) scale(2.6395) rotate(0)"><path d="M10 0H20V10L10 20H0V10L10 0Z" fill="#14333e"/></g><rect x="52.79" y="369.5" width="52.79" height="52.79" fill="#0f3345"/><g transform="translate(52.79,369.5) scale(2.6395) rotate(0)"><rect width="20" height="10" fill="#0c1c29"/></g><rect x="105.57" y="369.5" width="52.79" height="52.79" fill="#0d1e2b"/><rect x="105.57" y="369.5" width="52.79" height="52.79" fill="#0c1c29"/><rect x="158.36" y="369.5" width="52.79" height="52.79" fill="#0c1c29"/><path d="M 158.36 369.5 A 52.79 52.79 0 0 0 211.15 422.29 L 211.15 369.5" fill="#0c1c29"/><rect x="211.14" y="369.5" width="52.79" height="52.79" fill="#0c1c29"/><g transform="translate(211.14,369.5) scale(2.6395) rotate(0)"><path d="M10 5L5 0L0 5L5 10L0 15L5 20L10 15L15 20L20 15L15 10L20 5L15 0L10 5Z" fill="#328889"/></g><rect x="263.93" y="369.5" width="52.79" height="52.79" fill="#0f3041"/><polygon points="316.72,369.5 316.72,422.29 263.93,422.29" fill="#21585e"/><rect x="316.71" y="369.5" width="52.79" height="52.79" fill="#225a60"/><path d="M 316.71 422.29 A 52.79 52.79 0 0 1  369.5 369.5 L 369.5 422.29" fill="#122e39"/><rect x="369.5" y="369.5" width="52.79" height="52.79" fill="#183f48"/><path d="M 369.5 422.29 A 52.79 52.79 0 0 1  422.29 369.5 L 422.29 422.29" fill="#0e2f40"/><rect x="0" y="422.29" width="52.79" height="52.79" fill="#0c1c29"/><rect x="0" y="422.29" width="52.79" height="52.79" fill="#0d2736"/><rect x="52.79" y="422.29" width="52.79" height="52.79" fill="#102632"/><g transform="translate(52.79,422.29) scale(2.6395) rotate(0)"><path d="M10 0H20V10L10 20H0V10L10 0Z" fill="#296d71"/></g><rect x="105.57" y="422.29" width="52.79" height="52.79" fill="#2b7578"/><path d="M 105.57 475.08000000000004 A 52.79 52.79 0 0 1  158.35999999999999 422.29 L 158.35999999999999 475.08000000000004" fill="#0c1c29"/><rect x="158.36" y="422.29" width="52.79" height="52.79" fill="#173c45"/><g transform="translate(158.36,422.29) scale(2.6395) rotate(0)"><path d="M10 0L20 10L10 20L0 10L10 0Z" fill="#26656a"/></g><rect x="211.14" y="422.29" width="52.79" height="52.79" fill="#2d787b"/><g transform="translate(211.14,422.29) scale(2.6395) rotate(0)"><path d="M10 5L5 0L0 5L5 10L0 15L5 20L10 15L15 20L20 15L15 10L20 5L15 0L10 5Z" fill="#0e2f40"/></g><rect x="263.93" y="422.29" width="52.79" height="52.79" fill="#348d8d"/><path d="M 263.93 475.08000000000004 A 52.79 52.79 0 0 0 316.72 422.29 L 263.93 422.29" fill="#0c1c29"/><rect x="316.71" y="422.29" width="52.79" height="52.79" fill="#0c1c29"/><rect x="316.71" y="422.29" width="52.79" height="52.79" fill="#0c1c29"/><rect x="369.5" y="422.29" width="52.79" height="52.79" fill="#0e2c3c"/><polygon points="369.5,422.29 422.29,475.08000000000004 369.5,475.08000000000004" fill="#0c1c29"/><rect x="0" y="475.07" width="52.79" height="52.79" fill="#0c1c29"/><g transform="translate(0,475.07) scale(2.6395) rotate(0)"><path d="M10 0H20V10L10 20H0V10L10 0Z" fill="#0c1c29"/></g><rect x="52.79" y="475.07" width="52.79" height="52.79" fill="#0c1c29"/><g transform="translate(52.79,475.07) scale(2.6395) rotate(0)"><path d="M10 0H20V10L10 20H0V10L10 0Z" fill="#0f3345"/></g><rect x="105.57" y="475.07" width="52.79" height="52.79" fill="#0d212f"/><rect x="105.57" y="475.07" width="52.79" height="52.79" fill="#0f3446"/><rect x="158.36" y="475.07" width="52.79" height="52.79" fill="#235d63"/><g transform="translate(158.36,475.07) scale(2.6395) rotate(0)"><path d="M10 0L20 10L10 20L0 10L10 0Z" fill="#348e8e"/></g><rect x="211.14" y="475.07" width="52.79" height="52.79" fill="#0d2635"/><rect x="211.14" y="475.07" width="52.79" height="52.79" fill="#0c1c29"/><rect x="263.93" y="475.07" width="52.79" height="52.79" fill="#0e202d"/><g transform="translate(263.93,475.07) scale(2.6395) rotate(0)"><path d="M10 5L5 0L0 5L5 10L0 15L5 20L10 15L15 20L20 15L15 10L20 5L15 0L10 5Z" fill="#0e3041"/></g><rect x="316.71" y="475.07" width="52.79" height="52.79" fill="#0c1c29"/><polygon points="316.71,475.07 369.5,475.07 369.5,527.86" fill="#2a7174"/><rect x="369.5" y="475.07" width="52.79" height="52.79" fill="#0f3345"/><g transform="translate(369.5,475.07) scale(2.6395) rotate(0)"><path d="M10 5L5 0L0 5L5 10L0 15L5 20L10 15L15 20L20 15L15 10L20 5L15 0L10 5Z" fill="#0c1c29"/></g><rect x="0" y="527.86" width="52.79" height="52.79" fill="#183e48"/><g transform="translate(0,527.86) scale(2.6395) rotate(0)"><path d="M10 0H20V10L10 20H0V10L10 0Z" fill="#328889"/></g><rect x="52.79" y="527.86" width="52.79" height="52.79" fill="#246066"/><g transform="translate(52.79,527.86) scale(2.6395) rotate(0)"><path d="M10 0L20 10L10 20L0 10L10 0Z" fill="#183f48"/></g><rect x="105.57" y="527.86" width="52.79" height="52.79" fill="#0c1c29"/><g transform="translate(105.57,527.86) scale(2.6395) rotate(0)"><path d="M10 5L5 0L0 5L5 10L0 15L5 20L10 15L15 20L20 15L15 10L20 5L15 0L10 5Z" fill="#0c1c29"/></g><rect x="158.36" y="527.86" width="52.79" height="52.79" fill="#0f232f"/><rect x="158.36" y="527.86" width="52.79" height="52.79" fill="#0c1c29"/><rect x="211.14" y="527.86" width="52.79" height="52.79" fill="#0c1c29"/><g transform="translate(211.14,527.86) scale(2.6395) rotate(0)"><path d="M10 0L20 10L10 20L0 10L10 0Z" fill="#0f3142"/></g><rect x="263.93" y="527.86" width="52.79" height="52.79" fill="#0f2531"/><g transform="translate(263.93,527.86) scale(2.6395) rotate(0)"><path d="M10 0L20 10L10 20L0 10L10 0Z" fill="#0c202e"/></g><rect x="316.71" y="527.86" width="52.79" height="52.79" fill="#0c1c29"/><rect x="316.71" y="527.86" width="52.79" height="52.79" fill="#0c1c29"/><rect x="369.5" y="527.86" width="52.79" height="52.79" fill="#0c1c29"/><rect x="369.5" y="527.86" width="52.79" height="52.79" fill="#0f3041"/><rect x="0" y="580.64" width="52.79" height="52.79" fill="#0c1c29"/><rect x="0" y="580.64" width="52.79" height="52.79" fill="#163842"/><rect x="52.79" y="580.64" width="52.79" height="52.79" fill="#0c1d2b"/><g transform="translate(52.79,580.64) scale(2.6395) rotate(0)"><path d="M10 0H20V10L10 20H0V10L10 0Z" fill="#0d2736"/></g><rect x="105.57" y="580.64" width="52.79" height="52.79" fill="#13303b"/><g transform="translate(105.57,580.64) scale(2.6395) rotate(0)"><path d="M10 0H20V10L10 20H0V10L10 0Z" fill="#0c1c29"/></g><rect x="158.36" y="580.64" width="52.79" height="52.79" fill="#286c70"/><path d="M 158.36 633.43 A 52.79 52.79 0 0 1  211.15 580.64 L 211.15 633.43" fill="#0e2a3a"/><rect x="211.14" y="580.64" width="52.79" height="52.79" fill="#112935"/><g transform="translate(211.14,580.64) scale(2.6395) rotate(0)"><path d="M10 5L5 0L0 5L5 10L0 15L5 20L10 15L15 20L20 15L15 10L20 5L15 0L10 5Z" fill="#0f3244"/></g><rect x="263.93" y="580.64" width="52.79" height="52.79" fill="#0e2838"/><g transform="translate(263.93,580.64) scale(2.6395) rotate(0)"><path d="M10 0H20V10L10 20H0V10L10 0Z" fill="#2b7376"/></g><rect x="316.71" y="580.64" width="52.79" height="52.79" fill="#1d4d54"/><g transform="translate(316.71,580.64) scale(2.6395) rotate(0)"><path d="M10 0L20 10L10 20L0 10L10 0Z" fill="#2e7b7e"/></g><rect x="369.5" y="580.64" width="52.79" height="52.79" fill="#0d2635"/><g transform="translate(369.5,580.64) scale(2.6395) rotate(0)"><path d="M10 0L20 10L10 20L0 10L10 0Z" fill="#0c1c29"/></g><rect x="0" y="633.43" width="52.79" height="52.79" fill="#0c1c29"/><rect x="0" y="633.43" width="52.79" height="52.79" fill="#0c1d2b"/><rect x="52.79" y="633.43" width="52.79" height="52.79" fill="#21585f"/><polygon points="52.79,633.43 105.58,633.43 52.79,686.2199999999999" fill="#1c4951"/><rect x="105.57" y="633.43" width="52.79" height="52.79" fill="#0d2433"/><path d="M 105.57 633.43 A 52.79 52.79 0 0 0 158.35999999999999 686.2199999999999 L 158.35999999999999 633.43" fill="#0c1c29"/><rect x="158.36" y="633.43" width="52.79" height="52.79" fill="#0e2838"/><g transform="translate(158.36,633.43) scale(2.6395) rotate(0)"><path d="M10 5L5 0L0 5L5 10L0 15L5 20L10 15L15 20L20 15L15 10L20 5L15 0L10 5Z" fill="#0c1c29"/></g><rect x="211.14" y="633.43" width="52.79" height="52.79" fill="#0c1e2c"/><polygon points="211.14,633.43 263.93,686.2199999999999 211.14,686.2199999999999" fill="#0d2736"/><rect x="263.93" y="633.43" width="52.79" height="52.79" fill="#0c1c29"/><g transform="translate(263.93,633.43) scale(2.6395) rotate(0)"><path d="M10 0L20 10L10 20L0 10L10 0Z" fill="#0d2736"/></g><rect x="316.71" y="633.43" width="52.79" height="52.79" fill="#0e2939"/><g transform="translate(316.71,633.43) scale(2.6395) rotate(0)"><rect width="20" height="10" fill="#0c1c29"/></g><rect x="369.5" y="633.43" width="52.79" height="52.79" fill="#0d2432"/><g transform="translate(369.5,633.43) scale(2.6395) rotate(0)"><path d="M10 0H20V10L10 20H0V10L10 0Z" fill="#0d2331"/></g><rect x="0" y="686.21" width="52.79" height="52.79" fill="#0e2b3b"/><g transform="translate(0,686.21) scale(2.6395) rotate(0)"><path d="M10 0L20 10L10 20L0 10L10 0Z" fill="#1c4951"/></g><rect x="52.79" y="686.21" width="52.79" height="52.79" fill="#0c1c29"/><polygon points="105.58,686.21 105.58,739 52.79,739" fill="#348e8e"/><rect x="105.57" y="686.21" width="52.79" height="52.79" fill="#0c1c29"/><g transform="translate(105.57,686.21) scale(2.6395) rotate(0)"><rect width="20" height="10" fill="#0c1c29"/></g><rect x="158.36" y="686.21" width="52.79" height="52.79" fill="#0c1e2b"/><polygon points="158.36,686.21 211.15,686.21 211.15,739" fill="#225b61"/><rect x="211.14" y="686.21" width="52.79" height="52.79" fill="#0c1c29"/><g transform="translate(211.14,686.21) scale(2.6395) rotate(0)"><path d="M10 0L20 10L10 20L0 10L10 0Z" fill="#0c1c29"/></g><rect x="263.93" y="686.21" width="52.79" height="52.79" fill="#0c1c29"/><g transform="translate(263.93,686.21) scale(2.6395) rotate(0)"><path d="M10 0H20V10L10 20H0V10L10 0Z" fill="#0d2331"/></g><rect x="316.71" y="686.21" width="52.79" height="52.79" fill="#0d212f"/><g transform="translate(316.71,686.21) scale(2.6395) rotate(0)"><path d="M10 0H20V10L10 20H0V10L10 0Z" fill="#153741"/></g><rect x="369.5" y="686.21" width="52.79" height="52.79" fill="#0c1c29"/><polygon points="422.29,686.21 422.29,739 369.5,739" fill="#0d2332"/></g></svg>